<svg width="149" height="201" viewBox="0 0 149 201" fill="none" xmlns="http://www.w3.org/2000/svg">
<path d="M77.6752 195.68C52.1233 201.974 1.1861 204.546 1.85267 164.486C2.03025 153.814 4.89922 143.285 9.40507 133.467C21.3338 107.474 44.7351 86.4619 60.0427 80.9555C61.0986 80.5757 62.2515 81.0316 62.7977 82.0118C68.9773 93.0993 72.9303 108.195 92.7148 106.423C101.174 105.666 100.554 95.7366 99.1223 90.0205C98.7333 88.4675 99.6871 86.7788 101.178 86.1951C103.682 85.2148 106.157 83.5346 108.548 81.0564C108.969 80.62 109.519 80.3274 110.124 80.2833C121.691 79.4403 143.925 85.4408 147.305 116.349C150.779 148.111 133.451 178.383 124.353 189.55L77.6752 195.68Z" fill="#E5E5E5"/>
<path fill-rule="evenodd" clip-rule="evenodd" d="M112.67 75.8294C131.001 47.9696 129.666 23.6955 119.39 12.7503C109.113 1.80503 88.232 -10.0233 64.902 26.7528C58.3736 20.2838 45.3514 36.846 64.902 47.9696L61.8441 80.3682C63.1269 82.4825 64.2856 84.7969 65.4623 87.1472C70.5002 97.21 75.868 107.932 92.7148 106.423C103.001 105.502 99.8631 91.0204 98.1643 87.0412C101.915 86.3914 105.653 84.2751 109.191 80.3682C110.375 79.0601 111.537 77.5512 112.67 75.8294ZM147.305 116.348L131.085 130.738C130.506 131.251 130.203 132.002 130.244 132.775C131.032 147.676 127.112 174.524 124.353 189.549C133.451 178.383 150.779 148.11 147.305 116.348ZM77.6752 195.68C95.7282 192.67 128.001 183.695 112.67 171.874C99.6482 161.833 68.0712 161.743 47.4515 163.452L51.3176 145.328L9.40507 133.466C4.89922 143.285 2.03025 153.814 1.85267 164.486C1.1861 204.546 52.1233 201.973 77.6752 195.68Z" fill="white"/>
<path fill-rule="evenodd" clip-rule="evenodd" d="M97.0052 0.615862C106.955 0.328844 115.065 6.33104 120.294 11.9011C131.156 23.4694 132.167 48.4551 113.707 76.5114C113.135 77.3808 112.554 78.1997 111.965 78.9693C117.657 78.9254 125.115 80.4086 131.86 84.9535C139.881 90.3581 146.766 100.008 148.539 116.214C150.304 132.352 146.782 148.067 141.7 161.122C136.618 174.176 129.947 184.648 125.314 190.333L125.003 190.715L77.9048 196.901C65.0332 200.063 45.7377 202.306 29.6587 198.676C21.5937 196.855 14.2361 193.533 8.93033 188.004C3.59641 182.447 0.44069 174.767 0.612113 164.465C0.793147 153.586 3.71653 142.887 8.27742 132.949C14.5552 119.269 23.96 106.976 33.7094 97.5434C43.1033 88.455 52.9232 81.9215 60.6869 79.425L63.5923 48.6418C58.9546 45.8664 56.1026 42.7288 54.6144 39.5825C53.0493 36.2735 53.0299 33.027 53.9493 30.3596C54.859 27.7205 56.7033 25.617 58.8936 24.6412C60.7256 23.825 62.7916 23.8167 64.5955 24.9347C76.0988 7.26287 87.202 0.898656 97.0052 0.615862ZM63.7025 27.3406C62.5435 26.398 61.1996 26.3304 59.9034 26.9078C58.4268 27.5657 57.0133 29.085 56.2953 31.1683C55.5869 33.2233 55.5697 35.7987 56.8575 38.5215C57.9308 40.7907 59.9359 43.2115 63.2939 45.5074C62.9833 42.4417 63.1212 39.5556 63.3222 36.8248C63.3648 36.2458 63.4099 35.6763 63.4544 35.1145C63.6698 32.3946 63.8706 29.8595 63.7025 27.3406ZM65.4412 55.46C67.9774 64.0257 71.9587 71.7933 76.7651 77.6386C82.6034 84.739 89.8656 89.2231 97.3575 88.4073C98.0974 90.5578 98.9322 94.3326 98.6959 97.7943C98.5599 99.7862 98.0772 101.547 97.1407 102.836C96.2397 104.076 94.8434 104.987 92.6041 105.187C84.5002 105.913 79.2998 103.705 75.5 100.211C71.6197 96.6429 69.112 91.666 66.5716 86.5918L66.5592 86.5668C65.4548 84.361 64.342 82.1382 63.1176 80.0789L65.4412 55.46ZM61.2754 81.8428C54.0536 84.2142 44.6315 90.4292 35.4348 99.3268C26.1846 108.276 17.2682 119.838 11.1475 132.67L50.3806 143.774L53.9703 126.946C54.1132 126.276 54.7724 125.848 55.4425 125.991C56.1127 126.134 56.54 126.793 56.3971 127.463L49.012 162.084C59.086 161.318 71.4704 161.005 83.0186 162.021C95.1391 163.087 106.611 165.635 113.428 170.891C115.442 172.445 116.8 174.044 117.462 175.709C118.142 177.42 118.047 179.102 117.34 180.668C116.652 182.191 115.41 183.557 113.865 184.78C112.312 186.01 110.387 187.148 108.235 188.196C105.78 189.393 102.985 190.494 100.032 191.492L123.294 188.437C126.043 173.258 129.769 147.291 129.005 132.84C128.945 131.702 129.392 130.582 130.262 129.81L145.999 115.848C144.191 100.682 137.727 91.8987 130.473 87.0113C123.275 82.1605 115.178 81.0675 109.784 81.5556C106.632 84.9319 103.272 87.0223 99.8191 87.9461C100.618 90.4051 101.422 94.3007 101.172 97.9633C101.018 100.204 100.463 102.485 99.1481 104.295C97.7976 106.153 95.729 107.399 92.8254 107.659C84.0825 108.442 78.1755 106.043 73.8203 102.038C69.5747 98.1334 66.8873 92.7652 64.4041 87.805L64.3528 87.7026C63.3281 85.6558 62.3373 83.6781 61.2754 81.8428ZM146.296 118.902L131.909 131.666C131.621 131.921 131.461 132.302 131.483 132.709C132.195 146.188 129.11 169.204 126.477 184.657C130.561 178.823 135.456 170.32 139.387 160.222C144.118 148.071 147.425 133.681 146.296 118.902ZM46.43 162.294L49.8618 146.206L10.0952 134.951C5.89803 144.37 3.26152 154.389 3.09316 164.507C2.9313 174.234 5.89276 181.256 10.7206 186.286C15.5765 191.346 22.4253 194.498 30.2052 196.255C45.7882 199.774 64.6981 197.598 77.3785 194.475L77.4244 194.464L77.4711 194.456C86.4624 192.957 98.9027 189.984 107.148 185.966C109.201 184.965 110.958 183.917 112.325 182.835C113.7 181.746 114.614 180.674 115.078 179.647C115.523 178.662 115.575 177.68 115.156 176.626C114.719 175.526 113.731 174.258 111.913 172.857C105.708 168.072 94.8797 165.555 82.8012 164.493C70.7945 163.437 57.8203 163.837 47.554 164.689C43.9162 164.99 40.6247 165.348 37.8437 165.716C37.1644 165.806 36.5408 165.328 36.4509 164.649C36.361 163.969 36.8388 163.346 37.5181 163.256C40.1051 162.914 43.118 162.581 46.43 162.294ZM66.1711 27.0696C66.365 29.8316 66.1437 32.611 65.9246 35.3626C65.8808 35.912 65.8372 36.4602 65.7969 37.007C65.5415 40.4765 65.4098 43.9853 66.1209 47.7387C68.2124 58.7771 72.8491 68.9692 78.6817 76.0626C84.5461 83.1945 91.3946 86.9548 97.9525 85.8187C101.375 85.2258 104.877 83.2829 108.271 79.5354C109.408 78.2796 110.532 76.8221 111.634 75.1475C129.835 47.4842 128.177 23.9217 118.485 13.5995C113.438 8.22427 105.969 2.83969 97.0767 3.09622C88.3043 3.34928 77.6494 9.11628 66.1711 27.0696Z" fill="#232A2F"/>
<path fill-rule="evenodd" clip-rule="evenodd" d="M89.7089 32.0652C87.2541 31.9612 84.638 33.4409 84.0683 36.2636C83.5908 38.6299 83.4933 41.4841 84.508 44.064C85.5477 46.7076 87.6999 48.9162 91.4147 50.0012C93.2479 50.5366 94.9243 50.5333 96.4325 50.0718C97.936 49.6118 99.1947 48.7203 100.233 47.6011C102.283 45.392 103.547 42.2206 104.285 39.3024C105.213 35.6335 102.383 32.602 99.0501 32.4609L89.7089 32.0652ZM86.4555 36.7387C86.7149 35.4533 87.9859 34.5192 89.5677 34.5862L98.9089 34.9818C101.024 35.0714 102.385 36.8889 101.927 38.7027C101.234 41.4429 100.109 44.1224 98.4876 45.8701C97.6903 46.7293 96.7924 47.3428 95.7775 47.6533C94.7673 47.9624 93.5636 47.9954 92.1143 47.5721C89.0618 46.6806 87.5136 44.9715 86.7694 43.0791C86 41.1229 86.0349 38.8227 86.4555 36.7387Z" fill="#232A2F"/>
<path fill-rule="evenodd" clip-rule="evenodd" d="M65.3362 26.2612L86.2651 35.3359L85.278 37.6125L64.3491 28.5378L65.3362 26.2612Z" fill="#232A2F"/>
<path fill-rule="evenodd" clip-rule="evenodd" d="M110.068 33.4677C107.615 33.397 105.021 34.9098 104.487 37.7373C104.038 40.1101 103.975 42.9664 105.022 45.5335C106.094 48.1644 108.274 50.3448 112.003 51.3797C113.842 51.8902 115.518 51.8643 117.02 51.3829C118.517 50.9031 119.764 49.9954 120.788 48.8631C122.81 46.6278 124.035 43.4412 124.737 40.5138C125.621 36.8303 122.749 33.833 119.414 33.7369L110.068 33.4677ZM106.879 38.1832C107.122 36.8952 108.38 35.9453 109.961 35.9909L119.306 36.2601C121.423 36.3211 122.808 38.1225 122.372 39.9433C121.712 42.6918 120.622 45.3851 119.022 47.1537C118.235 48.0233 117.345 48.6486 116.334 48.9727C115.327 49.2953 114.124 49.3444 112.67 48.9409C109.606 48.0905 108.037 46.4021 107.27 44.5199C106.477 42.5739 106.484 40.2729 106.879 38.1832Z" fill="#232A2F"/>
<path fill-rule="evenodd" clip-rule="evenodd" d="M97.0052 0.615862C106.955 0.328844 115.065 6.33104 120.294 11.9011C131.156 23.4694 132.167 48.4551 113.707 76.5114C113.135 77.3808 112.554 78.1997 111.965 78.9693C117.657 78.9254 125.115 80.4086 131.86 84.9535C139.881 90.3581 146.766 100.008 148.539 116.214C150.304 132.352 146.782 148.067 141.7 161.122C136.618 174.176 129.947 184.648 125.314 190.333L125.003 190.715L77.9048 196.901C65.0332 200.063 45.7377 202.306 29.6587 198.676C21.5937 196.855 14.2361 193.533 8.93033 188.004C3.59641 182.447 0.44069 174.767 0.612113 164.465C0.793147 153.586 3.71653 142.887 8.27742 132.949C14.5552 119.269 23.96 106.976 33.7094 97.5434C43.1033 88.455 52.9232 81.9215 60.6869 79.425L63.5923 48.6418C58.9546 45.8664 56.1026 42.7288 54.6144 39.5825C53.0493 36.2735 53.0299 33.027 53.9493 30.3596C54.859 27.7205 56.7033 25.617 58.8936 24.6412C60.7256 23.825 62.7916 23.8167 64.5955 24.9347C76.0988 7.26287 87.202 0.898656 97.0052 0.615862ZM63.7025 27.3406C62.5435 26.398 61.1996 26.3304 59.9034 26.9078C58.4268 27.5657 57.0133 29.085 56.2953 31.1683C55.5869 33.2233 55.5697 35.7987 56.8575 38.5215C57.9308 40.7907 59.9359 43.2115 63.2939 45.5074C62.9833 42.4417 63.1212 39.5556 63.3222 36.8248C63.3648 36.2458 63.4099 35.6763 63.4544 35.1145C63.6698 32.3946 63.8706 29.8595 63.7025 27.3406ZM65.4412 55.46C67.9774 64.0257 71.9587 71.7933 76.7651 77.6386C82.6034 84.739 89.8656 89.2231 97.3575 88.4073C98.0974 90.5578 98.9322 94.3326 98.6959 97.7943C98.5599 99.7862 98.0772 101.547 97.1407 102.836C96.2397 104.076 94.8434 104.987 92.6041 105.187C87.5813 105.637 83.6948 104.957 80.5803 103.573C77.4648 102.19 75.0406 100.066 72.9963 97.5065C70.9423 94.9346 69.2901 91.9464 67.7084 88.8477C67.3337 88.1136 66.9617 87.3705 66.5888 86.6256C65.4711 84.3929 64.3456 82.1447 63.1176 80.079L65.4412 55.46ZM61.2755 81.8428C54.0537 84.2141 44.6315 90.4291 35.4348 99.3268C26.1846 108.276 17.2682 119.838 11.1475 132.67L50.3806 143.774L53.9703 126.946C54.1132 126.276 54.7724 125.848 55.4425 125.991C56.1127 126.134 56.54 126.793 56.3971 127.463L49.012 162.084C59.086 161.318 71.4704 161.005 83.0186 162.021C95.1391 163.087 106.611 165.635 113.428 170.891C115.442 172.445 116.8 174.044 117.462 175.709C118.142 177.42 118.047 179.102 117.34 180.668C116.652 182.191 115.41 183.557 113.865 184.78C112.312 186.01 110.387 187.148 108.235 188.196C105.78 189.393 102.985 190.494 100.032 191.492L123.294 188.437C126.123 172.817 129.981 145.802 128.929 131.645C128.763 129.407 128.477 127.547 128.067 126.13C127.645 124.672 127.145 123.879 126.698 123.535C126.155 123.118 126.053 122.339 126.471 121.795C126.889 121.252 127.668 121.151 128.211 121.568C129.298 122.405 129.985 123.833 130.451 125.44C130.752 126.482 130.985 127.685 131.158 129.015L145.999 115.848C144.191 100.682 137.727 91.8987 130.473 87.0113C123.275 82.1605 115.178 81.0675 109.784 81.5556C106.632 84.9319 103.272 87.0223 99.8191 87.9461C100.618 90.4051 101.422 94.3007 101.172 97.9633C101.018 100.204 100.463 102.485 99.1481 104.295C97.7976 106.153 95.729 107.399 92.8254 107.659C87.4574 108.139 83.1365 107.424 79.573 105.841C76.0105 104.259 73.2862 101.846 71.0574 99.055C68.8383 96.2764 67.0929 93.0999 65.4983 89.9758C65.1021 89.1995 64.7164 88.4293 64.3354 87.6684C63.3196 85.6395 62.3369 83.6768 61.2755 81.8428ZM146.296 118.902L131.446 132.076C132.292 145.469 129.15 168.969 126.477 184.657C130.561 178.823 135.456 170.32 139.387 160.222C144.118 148.071 147.425 133.681 146.296 118.902ZM46.43 162.294L49.8618 146.206L10.0952 134.951C5.89803 144.37 3.26152 154.389 3.09316 164.507C2.9313 174.234 5.89276 181.256 10.7206 186.286C15.5765 191.346 22.4253 194.498 30.2052 196.255C45.7882 199.774 64.6981 197.598 77.3785 194.475L77.4244 194.464L77.4711 194.456C86.4624 192.957 98.9027 189.984 107.148 185.966C109.201 184.965 110.958 183.917 112.325 182.835C113.7 181.746 114.614 180.674 115.078 179.647C115.523 178.662 115.575 177.68 115.156 176.626C114.719 175.526 113.731 174.258 111.913 172.857C105.708 168.072 94.8797 165.555 82.8012 164.493C70.7945 163.437 57.8203 163.837 47.554 164.689C43.9162 164.99 40.6247 165.348 37.8437 165.716C37.1644 165.806 36.5408 165.328 36.4509 164.649C36.361 163.969 36.8388 163.346 37.5181 163.256C40.1051 162.914 43.118 162.581 46.43 162.294ZM66.1711 27.0696C66.365 29.8316 66.1437 32.611 65.9246 35.3626C65.8808 35.912 65.8372 36.4602 65.7969 37.007C65.5415 40.4765 65.4098 43.9853 66.1209 47.7387C68.2124 58.7771 72.8491 68.9692 78.6817 76.0626C84.5461 83.1945 91.3946 86.9548 97.9525 85.8187C101.375 85.2258 104.877 83.2829 108.271 79.5354C109.408 78.2796 110.532 76.8221 111.634 75.1475C129.835 47.4842 128.177 23.9217 118.485 13.5995C113.438 8.22427 105.969 2.83969 97.0767 3.09622C88.3043 3.34928 77.6494 9.11628 66.1711 27.0696Z" fill="#232A2F"/>
<path fill-rule="evenodd" clip-rule="evenodd" d="M96.9353 36.1668C97.3914 36.6782 97.3466 37.4625 96.8352 37.9186L90.9472 43.1701C90.4358 43.6262 89.6515 43.5814 89.1954 43.07C88.7393 42.5586 88.7841 41.7744 89.2955 41.3183L95.1836 36.0667C95.695 35.6106 96.4793 35.6555 96.9353 36.1668ZM116.525 38.254C116.971 38.7743 116.911 39.5575 116.391 40.0035L110.821 44.7776C110.301 45.2235 109.517 45.1633 109.071 44.643C108.626 44.1228 108.686 43.3395 109.206 42.8936L114.776 38.1195C115.296 37.6735 116.079 37.7338 116.525 38.254ZM104.647 55.3255C104.893 55.965 104.574 56.6829 103.934 56.9289L97.7279 59.3159C97.0883 59.5619 96.3705 59.2428 96.1245 58.6033C95.8785 57.9637 96.1976 57.2459 96.8371 56.9999L103.044 54.6129C103.683 54.3669 104.401 54.6859 104.647 55.3255ZM86.5011 63.8577C87.0446 63.4403 87.8235 63.5425 88.2408 64.0859C89.8646 66.2 91.1106 67.4996 92.4342 68.3214C93.7241 69.1223 95.1862 69.5286 97.352 69.6501C98.0362 69.6885 98.5597 70.2743 98.5213 70.9584C98.4829 71.6426 97.8971 72.166 97.213 72.1276C94.7809 71.9911 92.8759 71.5164 91.1253 70.4295C89.4083 69.3635 87.9404 67.7685 86.2729 65.5974C85.8555 65.054 85.9577 64.2751 86.5011 63.8577Z" fill="#232A2F"/>
<path d="M117.826 122.708C118.177 120.51 115.79 118.812 114 120.135C105.125 126.695 96.2526 136.722 106.695 142.724C108.015 143.483 108.613 145.159 107.836 146.468L98.4385 162.311C97.6338 163.667 98.2822 165.42 99.7759 165.927L106.383 168.167C107.471 168.536 108.67 168.109 109.281 167.136L118.399 152.607C119.215 151.307 121.001 151.066 122.304 151.876C127.977 155.4 136.706 156.103 140.379 139.543C140.785 137.709 138.977 136.207 137.174 136.733C131.58 138.365 123.819 139.931 120.091 138.248C116.583 136.665 116.81 129.087 117.826 122.708Z" fill="#232A2F"/>
<path fill-rule="evenodd" clip-rule="evenodd" d="M116.013 121.123C115.616 120.85 115.154 120.824 114.738 121.132C110.335 124.386 106.101 128.388 104.215 132.19C103.283 134.069 102.988 135.772 103.383 137.268C103.772 138.744 104.898 140.26 107.313 141.648C109.12 142.687 110.096 145.09 108.903 147.1L99.5056 162.943C99.1033 163.621 99.4275 164.498 100.174 164.751L106.781 166.991C107.325 167.176 107.925 166.963 108.23 166.476L117.348 151.947C118.597 149.957 121.194 149.724 122.959 150.821C125.634 152.483 128.783 153.324 131.597 152.103C134.407 150.883 137.365 147.402 139.167 139.273C139.34 138.494 138.552 137.623 137.521 137.924C134.687 138.751 131.28 139.569 128.085 139.965C124.96 140.352 121.783 140.373 119.581 139.379C118.338 138.818 117.514 137.761 116.98 136.55C116.448 135.346 116.16 133.902 116.026 132.385C115.759 129.348 116.086 125.743 116.601 122.513C116.695 121.923 116.427 121.408 116.013 121.123ZM117.419 119.078C118.558 119.862 119.308 121.294 119.052 122.903C118.55 126.051 118.256 129.425 118.498 132.167C118.619 133.54 118.869 134.686 119.249 135.547C119.627 136.402 120.09 136.886 120.601 137.117C122.127 137.805 124.695 137.885 127.78 137.502C130.797 137.128 134.066 136.347 136.826 135.542C139.401 134.791 142.23 136.924 141.59 139.811C139.72 148.243 136.476 152.69 132.585 154.379C128.699 156.065 124.647 154.792 121.65 152.929C120.808 152.406 119.833 152.656 119.45 153.266L110.332 167.795C109.416 169.255 107.617 169.895 105.984 169.341L99.3775 167.101C97.1371 166.342 96.1645 163.712 97.3714 161.677L106.769 145.834C107.13 145.226 106.909 144.278 106.077 143.799C103.271 142.187 101.59 140.198 100.983 137.901C100.382 135.624 100.902 133.285 101.992 131.087C104.151 126.734 108.79 122.442 113.263 119.137C114.636 118.121 116.263 118.283 117.419 119.078Z" fill="#232A2F"/>
</svg>
